REM DIRINDEX 1\2\4\18,1\2\4\19,1\2\5\20,1\2\5\21,1\2\6\22,1\2\6\23,1\2\7\24,1\2\7\25,1\2\8\26,1\2\8\27,1\2\9\28,1\2\9\29,1\2\10\30,1\3\11\31,1\3\11\32,1\3\11\33,1\3\11\34,1\3\11\35,1\3\12\36,1\3\12\37,1\3\12\38,1\3\12\39,1\3\12\40,1\3\13\41,1\3\13\42,1\3\13\43,1\3\13\44,1\3\13\45,1\3\14\46,1\3\14\47,1\3\14\48,1\3\14\49,1\3\15\50,1\3\15\51,1\3\15\52,1\3\15\53,1\3\15\54,1\3\16\55,1\3\16\56,1\3\16\57,1\3\16\58,1\3\16\59,1\3\17\60,1\3\17\61
REM DIRNAME "folder01","folder02","folder03","folder04","folder05","folder06","folder07","folder08","folder09","folder10","folder11","folder12","folder13","folder14","folder15","folder16","folder17","folder18","folder19","folder20","folder21","folder22","folder23","folder24","folder25","folder26","folder27","folder28","folder29","folder30","folder31","folder32","folder33","folder34","folder35","folder36","folder37","folder38","folder39","folder40","folder41","folder42","folder43","folder44","folder45","folder46","folder47","folder48","folder49","folder50","folder51","folder52","folder53","folder54","folder55","folder56","folder57","folder58","folder59","folder60","folder61"
TITLE ""
FILE "TOEIC LR Kinnojyukugo_12.mp3" MP3
  TRACK 01 AUDIO
    TITLE "0:"
    INDEX 01 00:00:00
  TRACK 02 AUDIO
    TITLE "55:cjc160_5176"
    INDEX 01 00:00:12
  TRACK 03 AUDIO
    TITLE "0:"
    INDEX 01 00:01:16
  TRACK 04 AUDIO
    TITLE "56:cjc160_5177"
    INDEX 01 00:01:51
  TRACK 05 AUDIO
    TITLE "0:"
    INDEX 01 00:03:58
  TRACK 06 AUDIO
    TITLE "57:cjc160_5178"
    INDEX 01 00:04:20
  TRACK 07 AUDIO
    TITLE "0:"
    INDEX 01 00:06:34
  TRACK 08 AUDIO
    TITLE "58:cjc160_5179"
    INDEX 01 00:06:70
  TRACK 09 AUDIO
    TITLE "0:"
    INDEX 01 00:08:74
  TRACK 10 AUDIO
    TITLE "59:cjc160_5180"
    INDEX 01 00:09:25
  TRACK 11 AUDIO
    TITLE "0:"
    INDEX 01 00:11:30
  TRACK 12 AUDIO
    TITLE "55:cjc160_5181"
    INDEX 01 00:12:33
  TRACK 13 AUDIO
    TITLE "0:"
    INDEX 01 00:13:27
  TRACK 14 AUDIO
    TITLE "56:cjc160_5182"
    INDEX 01 00:13:66
  TRACK 15 AUDIO
    TITLE "0:"
    INDEX 01 00:15:04
  TRACK 16 AUDIO
    TITLE "57:cjc160_5183"
    INDEX 01 00:15:51
  TRACK 17 AUDIO
    TITLE "0:"
    INDEX 01 00:18:28
  TRACK 18 AUDIO
    TITLE "58:cjc160_5184"
    INDEX 01 00:18:71
  TRACK 19 AUDIO
    TITLE "0:"
    INDEX 01 00:21:05
  TRACK 20 AUDIO
    TITLE "59:cjc160_5185"
    INDEX 01 00:21:30
  TRACK 21 AUDIO
    TITLE "0:"
    INDEX 01 00:23:41
  TRACK 22 AUDIO
    TITLE "55:cjc160_5186"
    INDEX 01 00:24:42
  TRACK 23 AUDIO
    TITLE "0:"
    INDEX 01 00:25:51
  TRACK 24 AUDIO
    TITLE "56:cjc160_5187"
    INDEX 01 00:26:18
  TRACK 25 AUDIO
    TITLE "0:"
    INDEX 01 00:27:15
  TRACK 26 AUDIO
    TITLE "57:cjc160_5188"
    INDEX 01 00:27:54
  TRACK 27 AUDIO
    TITLE "0:"
    INDEX 01 00:30:43
  TRACK 28 AUDIO
    TITLE "58:cjc160_5189"
    INDEX 01 00:31:07
  TRACK 29 AUDIO
    TITLE "0:"
    INDEX 01 00:33:72
  TRACK 30 AUDIO
    TITLE "59:cjc160_5190"
    INDEX 01 00:34:23
  TRACK 31 AUDIO
    TITLE "0:"
    INDEX 01 00:37:13
  TRACK 32 AUDIO
    TITLE "55:cjc160_5191"
    INDEX 01 00:38:13
  TRACK 33 AUDIO
    TITLE "0:"
    INDEX 01 00:39:20
  TRACK 34 AUDIO
    TITLE "56:cjc160_5192"
    INDEX 01 00:39:61
  TRACK 35 AUDIO
    TITLE "0:"
    INDEX 01 00:42:67
  TRACK 36 AUDIO
    TITLE "57:cjc160_5193"
    INDEX 01 00:43:32
  TRACK 37 AUDIO
    TITLE "0:"
    INDEX 01 00:45:48
  TRACK 38 AUDIO
    TITLE "58:cjc160_5194"
    INDEX 01 00:46:12
  TRACK 39 AUDIO
    TITLE "0:"
    INDEX 01 00:48:35
  TRACK 40 AUDIO
    TITLE "59:cjc160_5195"
    INDEX 01 00:48:62
  TRACK 41 AUDIO
    TITLE "0:"
    INDEX 01 00:51:12
  TRACK 42 AUDIO
    TITLE "55:cjc160_5196"
    INDEX 01 00:52:13
  TRACK 43 AUDIO
    TITLE "0:"
    INDEX 01 00:53:20
  TRACK 44 AUDIO
    TITLE "56:cjc160_5197"
    INDEX 01 00:53:52
  TRACK 45 AUDIO
    TITLE "0:"
    INDEX 01 00:54:73
  TRACK 46 AUDIO
    TITLE "57:cjc160_5198"
    INDEX 01 00:55:43
  TRACK 47 AUDIO
    TITLE "0:"
    INDEX 01 00:58:00
  TRACK 48 AUDIO
    TITLE "58:cjc160_5199"
    INDEX 01 00:58:39
  TRACK 49 AUDIO
    TITLE "0:"
    INDEX 01 01:01:24
  TRACK 50 AUDIO
    TITLE "59:cjc160_5200"
    INDEX 01 01:01:49
  TRACK 51 AUDIO
    TITLE "0:"
    INDEX 01 01:04:34
  TRACK 52 AUDIO
    TITLE "55:cjc160_5201"
    INDEX 01 01:05:33
  TRACK 53 AUDIO
    TITLE "0:"
    INDEX 01 01:06:58
  TRACK 54 AUDIO
    TITLE "56:cjc160_5202"
    INDEX 01 01:07:20
  TRACK 55 AUDIO
    TITLE "0:"
    INDEX 01 01:08:22
  TRACK 56 AUDIO
    TITLE "57:cjc160_5203"
    INDEX 01 01:08:61
  TRACK 57 AUDIO
    TITLE "0:"
    INDEX 01 01:11:73
  TRACK 58 AUDIO
    TITLE "58:cjc160_5204"
    INDEX 01 01:12:37
  TRACK 59 AUDIO
    TITLE "0:"
    INDEX 01 01:14:69
  TRACK 60 AUDIO
    TITLE "59:cjc160_5205"
    INDEX 01 01:15:30
  TRACK 61 AUDIO
    TITLE "0:"
    INDEX 01 01:17:62
  TRACK 62 AUDIO
    TITLE "55:cjc160_5206"
    INDEX 01 01:18:73
  TRACK 63 AUDIO
    TITLE "0:"
    INDEX 01 01:20:09
  TRACK 64 AUDIO
    TITLE "56:cjc160_5207"
    INDEX 01 01:20:43
  TRACK 65 AUDIO
    TITLE "0:"
    INDEX 01 01:21:54
  TRACK 66 AUDIO
    TITLE "57:cjc160_5208"
    INDEX 01 01:22:14
  TRACK 67 AUDIO
    TITLE "0:"
    INDEX 01 01:24:56
  TRACK 68 AUDIO
    TITLE "58:cjc160_5209"
    INDEX 01 01:25:20
  TRACK 69 AUDIO
    TITLE "0:"
    INDEX 01 01:27:58
  TRACK 70 AUDIO
    TITLE "59:cjc160_5210"
    INDEX 01 01:28:17
  TRACK 71 AUDIO
    TITLE "0:"
    INDEX 01 01:30:59
  TRACK 72 AUDIO
    TITLE "55:cjc160_5211"
    INDEX 01 01:31:66
  TRACK 73 AUDIO
    TITLE "0:"
    INDEX 01 01:32:69
  TRACK 74 AUDIO
    TITLE "56:cjc160_5212"
    INDEX 01 01:33:33
  TRACK 75 AUDIO
    TITLE "0:"
    INDEX 01 01:34:25
  TRACK 76 AUDIO
    TITLE "57:cjc160_5213"
    INDEX 01 01:34:62
  TRACK 77 AUDIO
    TITLE "0:"
    INDEX 01 01:36:67
  TRACK 78 AUDIO
    TITLE "58:cjc160_5214"
    INDEX 01 01:37:33
  TRACK 79 AUDIO
    TITLE "0:"
    INDEX 01 01:39:36
  TRACK 80 AUDIO
    TITLE "59:cjc160_5215"
    INDEX 01 01:39:60
  TRACK 81 AUDIO
    TITLE "0:"
    INDEX 01 01:41:66
  TRACK 82 AUDIO
    TITLE "55:cjc160_5216"
    INDEX 01 01:42:66
  TRACK 83 AUDIO
    TITLE "0:"
    INDEX 01 01:44:02
  TRACK 84 AUDIO
    TITLE "56:cjc160_5217"
    INDEX 01 01:44:37
  TRACK 85 AUDIO
    TITLE "0:"
    INDEX 01 01:45:35
  TRACK 86 AUDIO
    TITLE "57:cjc160_5218"
    INDEX 01 01:45:72
  TRACK 87 AUDIO
    TITLE "0:"
    INDEX 01 01:48:33
  TRACK 88 AUDIO
    TITLE "58:cjc160_5219"
    INDEX 01 01:48:66
  TRACK 89 AUDIO
    TITLE "0:"
    INDEX 01 01:51:29
  TRACK 90 AUDIO
    TITLE "59:cjc160_5220"
    INDEX 01 01:51:49
  TRACK 91 AUDIO
    TITLE "0:"
    INDEX 01 01:54:12
  TRACK 92 AUDIO
    TITLE "55:cjc160_5221"
    INDEX 01 01:55:10
  TRACK 93 AUDIO
    TITLE "0:"
    INDEX 01 01:56:37
  TRACK 94 AUDIO
    TITLE "56:cjc160_5222"
    INDEX 01 01:56:72
  TRACK 95 AUDIO
    TITLE "0:"
    INDEX 01 01:58:08
  TRACK 96 AUDIO
    TITLE "57:cjc160_5223"
    INDEX 01 01:58:49
  TRACK 97 AUDIO
    TITLE "0:"
    INDEX 01 02:01:02
  TRACK 98 AUDIO
    TITLE "58:cjc160_5224"
    INDEX 01 02:01:40
  TRACK 99 AUDIO
    TITLE "0:"
    INDEX 01 02:04:01
  TRACK 100 AUDIO
    TITLE "59:cjc160_5225"
    INDEX 01 02:04:26
  TRACK 101 AUDIO
    TITLE "0:"
    INDEX 01 02:06:60
